# xmcd
#
# Track frame offsets: 
#        150
#        20760
#        43837
#        72224
#        90846
#        109281
#        126538
#        148799
#        167540
#        186555
#        208645
#        236280
#        262584
#
# Disc length: 3824 seconds
#
# Revision: 1
# Processed by: cddbd v1.5.2PL0 Copyright (c) Steve Scherf et al.
# Submitted via: ExactAudioCopy v1.0b3
#
DISCID=b70eee0d
DTITLE=Cassandra Wilson - Coming Forth by Day
DYEAR=2015
DGENRE=Jazz
TTITLE0=Don't Explain
TTITLE1=Billie's Blues
TTITLE2=Crazy He Calls Me
TTITLE3=You Go to My Head
TTITLE4=All of Me
TTITLE5=The Way You Look Tonight - 今宵の君は
TTITLE6=Good MorningHeartache
TTITLE7=What a Little Moonlight Can Do - 月光のいたずら
TTITLE8=These Foolish Things
TTITLE9=Strange Fruit - 奇妙な果実
TTITLE10=I'll Be Seeing You
TTITLE11=Last Song (For Lester)
TTITLE12=The Mood That I'm in
EXTD=YEAR: 2015
EXTT0=
EXTT1=
EXTT2=
EXTT3=
EXTT4=
EXTT5=
EXTT6=
EXTT7=
EXTT8=
EXTT9=
EXTT10=
EXTT11=
EXTT12=
PLAYORDER=
